<?xml version="1.0" encoding="UTF-8" standalone="yes"?>
<!DOCTYPE svg PUBLIC "-//W3C//DTD SVG 1.1//EN" "http://www.w3.org/Graphics/SVG/1.1/DTD/svg11.dtd">

<svg width="400" height="60" viewBox="0 0 400 60" xmlns="http://www.w3.org/2000/svg" xmlns:xlink="http://www.w3.org/1999/xlink" version="1.1" baseProfile="full">
    <g transform="scale(1,-1) translate(0,-60)">
        <path d="M 6.516495 41.155239 L 69.331803 41.155239 L 69.331803 36.845167 L 2.126607 36.845167 L 2.126607 153.057477 L 6.516495 153.057477 Z M 95.431683 36.845167 L 91.121611 36.845167 L 91.121611 123.206238 L 95.431683 123.206238 Z M 95.431683 150.343728 L 91.121611 150.343728 L 91.121611 161.358356 L 95.431683 161.358356 Z M 127.437958 123.206238 L 127.996671 105.806318 Q 131.987479 114.825542 139.490196 119.814052 Q 146.992914 124.802561 157.927726 124.802561 Q 172.055185 124.802561 179.118914 115.903060 Q 186.182643 107.003560 186.182643 87.688052 L 186.182643 36.845167 L 181.872571 36.845167 L 181.872571 87.847685 Q 181.872571 105.806318 175.447371 113.149403 Q 169.022171 120.492489 158.007543 120.492489 Q 144.438798 120.492489 137.255344 112.590690 Q 130.071891 104.688892 128.076487 92.237573 L 128.076487 36.845167 L 123.766415 36.845167 L 123.766415 81.063312 L 123.526967 81.063312 Q 123.526967 82.579819 123.566875 84.136234 Q 123.606783 85.692649 123.766415 87.288972 L 123.766415 123.206238 Z M 229.363178 80.983496 L 217.550388 80.983496 L 217.550388 36.845167 L 213.240317 36.845167 L 213.240317 161.358356 L 217.550388 161.358356 L 217.550388 85.293568 L 227.687039 85.293568 L 266.956584 123.206238 L 271.985001 123.206238 L 272.144633 122.727341 L 232.555824 83.856877 L 275.177647 37.244247 L 275.018014 36.845167 L 269.989597 36.845167 Z M 320.832483 35.169028 Q 305.587599 35.169028 295.091775 46.981817 Q 284.595952 58.794607 284.595952 76.753240 L 284.595952 81.861474 Q 284.595952 100.618268 295.011959 112.710415 Q 305.427967 124.802561 321.231564 124.802561 Q 335.598470 124.802561 344.138798 115.344347 Q 352.679126 105.886134 352.679126 89.523824 L 352.679126 82.899084 L 288.906024 82.899084 L 288.906024 81.861474 L 288.906024 76.753240 Q 288.906024 60.949643 297.845433 50.214371 Q 306.784841 39.479100 320.832483 39.479100 Q 328.574649 39.479100 335.718194 42.352481 Q 342.861740 45.225862 347.331444 50.014831 L 349.646112 46.662553 Q 345.096592 41.634135 337.913138 38.401582 Q 330.729685 35.169028 320.832483 35.169028 Z M 321.231564 120.492489 Q 307.822451 120.492489 299.242215 111.193908 Q 290.661979 101.895327 289.544553 87.688052 L 289.784002 87.209156 L 348.369054 87.209156 L 348.369054 89.843088 Q 348.369054 103.172385 341.105784 111.832437 Q 333.842515 120.492489 321.231564 120.492489 Z M 369.520333 80.105518 Q 369.520333 100.618268 378.140477 112.710415 Q 386.760621 124.802561 402.085321 124.802561 Q 412.142155 124.802561 419.525149 120.292949 Q 426.908143 115.783336 431.298031 107.961354 L 431.298031 161.358356 L 435.608103 161.358356 L 435.608103 96.627461 Q 435.608103 96.467829 435.608103 96.388012 Q 435.608103 96.308196 435.687919 96.308196 L 435.687919 61.109275 Q 435.608103 60.949643 435.608103 60.869827 Q 435.608103 60.790011 435.608103 60.710195 L 435.608103 36.845167 L 431.457663 36.845167 L 431.298031 50.174463 Q 426.987959 43.230458 419.485241 39.199743 Q 411.982523 35.169028 401.925689 35.169028 Q 386.680804 35.169028 378.100569 46.822185 Q 369.520333 58.475343 369.520333 78.429379 Z M 373.990037 78.429379 Q 373.990037 60.550562 381.053766 50.014831 Q 388.117495 39.479100 401.845872 39.479100 Q 413.099949 39.479100 420.522851 44.547425 Q 427.945753 49.615750 431.298031 58.076262 L 431.298031 98.942129 Q 428.105385 108.120986 421.201288 114.306738 Q 414.297191 120.492489 402.005505 120.492489 Q 388.277127 120.492489 381.133582 109.278320 Q 373.990037 98.064152 373.990037 80.105518 Z M 469.529965 86.730259 L 469.529965 36.845167 L 465.219893 36.845167 L 465.219893 153.057477 L 501.536240 153.057477 Q 519.574690 153.057477 529.312260 143.998344 Q 539.049829 134.939212 539.049829 119.933776 Q 539.049829 104.768708 529.352168 95.749483 Q 519.654506 86.730259 501.536240 86.730259 Z M 469.529965 91.040331 L 501.536240 91.040331 Q 518.058183 91.040331 526.398970 99.261394 Q 534.739758 107.482457 534.739758 119.774144 Q 534.739758 132.385095 526.438878 140.566250 Q 518.137999 148.747405 501.536240 148.747405 L 469.529965 148.747405 Z M 566.506584 36.845167 L 562.196512 36.845167 L 562.196512 123.206238 L 566.506584 123.206238 Z M 566.506584 150.343728 L 562.196512 150.343728 L 562.196512 161.358356 L 566.506584 161.358356 Z M 660.849270 78.429379 Q 660.849270 58.475343 652.229126 46.822185 Q 643.608982 35.169028 628.443914 35.169028 Q 618.387080 35.169028 610.924270 39.159835 Q 603.461460 43.150642 599.151388 50.014831 L 599.151388 3.641649 L 594.841316 3.641649 L 594.841316 60.470746 Q 594.761500 60.710195 594.721592 60.869827 Q 594.681684 61.029459 594.681684 61.189092 L 594.681684 96.308196 Q 594.681684 96.388012 594.681684 96.427921 Q 594.681684 96.467829 594.841316 96.946726 L 594.841316 123.206238 L 598.193595 123.206238 L 599.071572 107.961354 Q 603.381644 115.783336 610.804546 120.292949 Q 618.227448 124.802561 628.284282 124.802561 Q 643.529166 124.802561 652.189218 112.710415 Q 660.849270 100.618268 660.849270 80.105518 Z M 656.459382 80.105518 Q 656.459382 98.064152 649.236021 109.278320 Q 642.012659 120.492489 628.364098 120.492489 Q 616.072412 120.492489 609.168315 114.346646 Q 602.264218 108.200802 599.151388 99.181578 L 599.151388 57.916630 Q 602.423850 49.456118 609.846752 44.467609 Q 617.269654 39.479100 628.523731 39.479100 Q 642.172292 39.479100 649.315837 50.014831 Q 656.459382 60.550562 656.459382 78.429379 Z M 714.565537 35.169028 Q 699.320653 35.169028 688.824830 46.981817 Q 678.329006 58.794607 678.329006 76.753240 L 678.329006 81.861474 Q 678.329006 100.618268 688.745014 112.710415 Q 699.161021 124.802561 714.964618 124.802561 Q 729.331524 124.802561 737.871852 115.344347 Q 746.412180 105.886134 746.412180 89.523824 L 746.412180 82.899084 L 682.639078 82.899084 L 682.639078 81.861474 L 682.639078 76.753240 Q 682.639078 60.949643 691.578487 50.214371 Q 700.517895 39.479100 714.565537 39.479100 Q 722.307703 39.479100 729.451249 42.352481 Q 736.594794 45.225862 741.064498 50.014831 L 743.379166 46.662553 Q 738.829646 41.634135 731.646193 38.401582 Q 724.462739 35.169028 714.565537 35.169028 Z M 714.964618 120.492489 Q 701.555505 120.492489 692.975269 111.193908 Q 684.395034 101.895327 683.277608 87.688052 L 683.517056 87.209156 L 742.102108 87.209156 L 742.102108 89.843088 Q 742.102108 103.172385 734.838839 111.832437 Q 727.575569 120.492489 714.964618 120.492489 Z M 820.162300 57.996446 Q 820.162300 64.860634 814.295813 70.487673 Q 808.429326 76.114711 793.822971 79.307357 Q 778.418455 82.579819 771.514358 87.727961 Q 764.610262 92.876102 764.610262 103.012753 Q 764.610262 112.271426 772.432244 118.536993 Q 780.254226 124.802561 793.503707 124.802561 Q 807.790797 124.802561 816.011860 118.098005 Q 824.232924 111.393448 823.833843 100.618268 L 823.674210 100.139371 L 820.002668 100.139371 Q 820.002668 108.599883 812.859123 114.546186 Q 805.715577 120.492489 793.503707 120.492489 Q 781.371652 120.492489 775.145993 115.264531 Q 768.920333 110.036574 768.920333 103.172385 Q 768.920333 96.388012 774.188199 91.599044 Q 779.456065 86.810075 795.100030 83.218348 Q 809.546752 79.866070 817.009562 74.079399 Q 824.472372 68.292729 824.472372 57.916630 Q 824.472372 47.779979 816.171493 41.474503 Q 807.870613 35.169028 794.142236 35.169028 Q 779.056984 35.169028 770.476748 41.913492 Q 761.896513 48.657956 762.455226 58.315710 L 762.614858 58.794607 L 766.126768 58.794607 Q 766.765298 48.578140 774.906545 44.028620 Q 783.047792 39.479100 794.142236 39.479100 Q 806.114658 39.479100 813.138479 45.066230 Q 820.162300 50.653360 820.162300 57.996446 Z M 951.140598 71.565191 L 894.391317 71.565191 L 881.381285 36.845167 L 876.672132 36.845167 L 920.092116 153.057477 L 925.359982 153.057477 L 968.859782 36.845167 L 964.150630 36.845167 Z M 895.987640 75.875263 L 949.544275 75.875263 L 925.200350 140.925423 L 922.965498 147.709795 L 922.486601 147.709795 L 920.331565 140.925423 Z M 1051.309862 78.429379 Q 1051.309862 58.475343 1042.689718 46.822185 Q 1034.069575 35.169028 1018.904507 35.169028 Q 1008.847672 35.169028 1001.384862 39.159835 Q 993.922052 43.150642 989.611981 50.014831 L 989.611981 3.641649 L 985.301909 3.641649 L 985.301909 60.470746 Q 985.222092 60.710195 985.182184 60.869827 Q 985.142276 61.029459 985.142276 61.189092 L 985.142276 96.308196 Q 985.142276 96.388012 985.142276 96.427921 Q 985.142276 96.467829 985.301909 96.946726 L 985.301909 123.206238 L 988.654187 123.206238 L 989.532164 107.961354 Q 993.842236 115.783336 1001.265138 120.292949 Q 1008.688040 124.802561 1018.744874 124.802561 Q 1033.989758 124.802561 1042.649810 112.710415 Q 1051.309862 100.618268 1051.309862 80.105518 Z M 1046.919974 80.105518 Q 1046.919974 98.064152 1039.696613 109.278320 Q 1032.473252 120.492489 1018.824690 120.492489 Q 1006.533004 120.492489 999.628907 114.346646 Q 992.724810 108.200802 989.611981 99.181578 L 989.611981 57.916630 Q 992.884443 49.456118 1000.307344 44.467609 Q 1007.730246 39.479100 1018.984323 39.479100 Q 1032.632884 39.479100 1039.776429 50.014831 Q 1046.919974 60.550562 1046.919974 78.429379 Z M 1140.783763 78.429379 Q 1140.783763 58.475343 1132.163619 46.822185 Q 1123.543476 35.169028 1108.378408 35.169028 Q 1098.321573 35.169028 1090.858763 39.159835 Q 1083.395954 43.150642 1079.085882 50.014831 L 1079.085882 3.641649 L 1074.775810 3.641649 L 1074.775810 60.470746 Q 1074.695993 60.710195 1074.656085 60.869827 Q 1074.616177 61.029459 1074.616177 61.189092 L 1074.616177 96.308196 Q 1074.616177 96.388012 1074.616177 96.427921 Q 1074.616177 96.467829 1074.775810 96.946726 L 1074.775810 123.206238 L 1078.128088 123.206238 L 1079.006065 107.961354 Q 1083.316137 115.783336 1090.739039 120.292949 Q 1098.161941 124.802561 1108.218775 124.802561 Q 1123.463659 124.802561 1132.123711 112.710415 Q 1140.783763 100.618268 1140.783763 80.105518 Z M 1136.393875 80.105518 Q 1136.393875 98.064152 1129.170514 109.278320 Q 1121.947153 120.492489 1108.298591 120.492489 Q 1096.006905 120.492489 1089.102808 114.346646 Q 1082.198711 108.200802 1079.085882 99.181578 L 1079.085882 57.916630 Q 1082.358344 49.456118 1089.781245 44.467609 Q 1097.204147 39.479100 1108.458224 39.479100 Q 1122.106785 39.479100 1129.250330 50.014831 Q 1136.393875 60.550562 1136.393875 78.429379 Z M 1169.597393 36.845167 L 1165.287321 36.845167 L 1165.287321 161.358356 L 1169.597393 161.358356 Z M 1203.279807 36.845167 L 1198.969735 36.845167 L 1198.969735 123.206238 L 1203.279807 123.206238 Z M 1203.279807 150.343728 L 1198.969735 150.343728 L 1198.969735 161.358356 L 1203.279807 161.358356 Z M 1260.907065 39.479100 Q 1271.841877 39.479100 1280.222573 45.465311 Q 1288.603268 51.451522 1288.603268 63.423944 L 1292.274811 63.423944 L 1292.434443 62.945047 Q 1292.753708 50.254279 1283.135862 42.711653 Q 1273.518016 35.169028 1260.907065 35.169028 Q 1244.385122 35.169028 1235.006725 47.061633 Q 1225.628328 58.954239 1225.628328 78.349563 L 1225.628328 81.701841 Q 1225.628328 101.017349 1234.966817 112.909955 Q 1244.305306 124.802561 1260.747433 124.802561 Q 1274.156545 124.802561 1283.455127 116.940670 Q 1292.753708 109.078780 1292.434443 94.791690 L 1292.274811 94.312793 L 1288.603268 94.312793 Q 1288.603268 107.003560 1280.462021 113.748024 Q 1272.320774 120.492489 1260.747433 120.492489 Q 1245.582365 120.492489 1237.760382 109.637493 Q 1229.938400 98.782497 1229.938400 81.701841 L 1229.938400 78.349563 Q 1229.938400 61.109275 1237.760382 50.294187 Q 1245.582365 39.479100 1260.907065 39.479100 Z M 1368.738680 52.808396 Q 1364.268976 44.986414 1355.409383 40.077721 Q 1346.549791 35.169028 1333.938840 35.169028 Q 1321.886601 35.169028 1315.022413 41.753860 Q 1308.158224 48.338692 1308.158224 59.512952 Q 1308.158224 70.367948 1318.414599 77.711034 Q 1328.670974 85.054120 1344.075490 85.054120 L 1368.738680 85.054120 L 1368.738680 97.665071 Q 1368.738680 108.440251 1361.834583 114.466370 Q 1354.930486 120.492489 1342.399351 120.492489 Q 1330.666378 120.492489 1323.522832 114.825542 Q 1316.379287 109.158596 1316.379287 100.219188 L 1312.787561 100.378820 L 1312.627928 100.777901 Q 1312.149031 110.834735 1320.449911 117.818648 Q 1328.750790 124.802561 1342.399351 124.802561 Q 1356.287361 124.802561 1364.668056 117.778740 Q 1373.048752 110.754919 1373.048752 97.505439 L 1373.048752 54.245087 Q 1373.048752 49.695566 1373.567557 45.385494 Q 1374.086362 41.075422 1375.283604 36.845167 L 1370.494635 36.845167 Q 1369.457025 42.512113 1369.097853 45.345586 Q 1368.738680 48.179060 1368.738680 51.451522 Z M 1333.938840 39.399283 Q 1346.789239 39.399283 1355.688740 45.066230 Q 1364.588240 50.733176 1368.738680 61.268908 L 1368.738680 80.664231 L 1344.314939 80.664231 Q 1330.905826 80.664231 1321.687061 74.478480 Q 1312.468296 68.292729 1312.468296 59.193688 Q 1312.468296 50.493728 1318.334783 44.946506 Q 1324.201270 39.399283 1333.938840 39.399283 Z M 1409.764180 146.512553 L 1409.764180 123.206238 L 1430.995275 123.206238 L 1430.995275 118.816350 L 1409.764180 118.816350 L 1409.764180 59.113872 Q 1409.764180 48.498324 1413.355906 43.988712 Q 1416.947633 39.479100 1422.854028 39.479100 Q 1425.009064 39.479100 1426.685203 39.638732 Q 1428.361342 39.798364 1431.314539 40.197445 L 1432.112701 36.286454 Q 1430.117297 35.647924 1427.962261 35.408476 Q 1425.807225 35.169028 1423.093476 35.169028 Q 1414.393516 35.169028 1409.883904 40.835974 Q 1405.374291 46.502920 1405.374291 59.113872 L 1405.374291 118.816350 L 1389.411062 118.816350 L 1389.411062 123.206238 L 1405.374291 123.206238 L 1405.374291 146.512553 Z M 1456.696074 36.845167 L 1452.386002 36.845167 L 1452.386002 123.206238 L 1456.696074 123.206238 Z M 1456.696074 150.343728 L 1452.386002 150.343728 L 1452.386002 161.358356 L 1456.696074 161.358356 Z M 1478.246434 81.701841 Q 1478.246434 100.698084 1488.742257 112.750323 Q 1499.238081 124.802561 1515.999471 124.802561 Q 1532.840679 124.802561 1543.336502 112.750323 Q 1553.832325 100.698084 1553.832325 81.701841 L 1553.832325 78.349563 Q 1553.832325 59.273504 1543.336502 47.221266 Q 1532.840679 35.169028 1516.159104 35.169028 Q 1499.317897 35.169028 1488.782165 47.221266 Q 1478.246434 59.273504 1478.246434 78.349563 Z M 1482.556506 78.349563 Q 1482.556506 62.067069 1491.655547 50.773084 Q 1500.754587 39.479100 1516.159104 39.479100 Q 1531.324172 39.479100 1540.423213 50.812992 Q 1549.522253 62.146885 1549.522253 78.349563 L 1549.522253 81.701841 Q 1549.522253 97.585255 1540.343396 109.038872 Q 1531.164539 120.492489 1515.999471 120.492489 Q 1500.754587 120.492489 1491.655547 109.038872 Q 1482.556506 97.585255 1482.556506 81.701841 Z M 1578.176250 123.206238 L 1578.734963 105.806318 Q 1582.725771 114.825542 1590.228488 119.814052 Q 1597.731206 124.802561 1608.666018 124.802561 Q 1622.793476 124.802561 1629.857205 115.903060 Q 1636.920935 107.003560 1636.920935 87.688052 L 1636.920935 36.845167 L 1632.610863 36.845167 L 1632.610863 87.847685 Q 1632.610863 105.806318 1626.185663 113.149403 Q 1619.760463 120.492489 1608.745835 120.492489 Q 1595.177090 120.492489 1587.993636 112.590690 Q 1580.810183 104.688892 1578.814779 92.237573 L 1578.814779 36.845167 L 1574.504707 36.845167 L 1574.504707 81.063312 L 1574.265259 81.063312 Q 1574.265259 82.579819 1574.305167 84.136234 Q 1574.345075 85.692649 1574.504707 87.288972 L 1574.504707 123.206238 Z M 1716.896714 57.996446 Q 1716.896714 64.860634 1711.030227 70.487673 Q 1705.163740 76.114711 1690.557385 79.307357 Q 1675.152869 82.579819 1668.248772 87.727961 Q 1661.344676 92.876102 1661.344676 103.012753 Q 1661.344676 112.271426 1669.166658 118.536993 Q 1676.988640 124.802561 1690.238121 124.802561 Q 1704.525211 124.802561 1712.746274 118.098005 Q 1720.967338 111.393448 1720.568257 100.618268 L 1720.408625 100.139371 L 1716.737082 100.139371 Q 1716.737082 108.599883 1709.593537 114.546186 Q 1702.449991 120.492489 1690.238121 120.492489 Q 1678.106066 120.492489 1671.880407 115.264531 Q 1665.654748 110.036574 1665.654748 103.172385 Q 1665.654748 96.388012 1670.922613 91.599044 Q 1676.190479 86.810075 1691.834444 83.218348 Q 1706.281166 79.866070 1713.743976 74.079399 Q 1721.206786 68.292729 1721.206786 57.916630 Q 1721.206786 47.779979 1712.905907 41.474503 Q 1704.605027 35.169028 1690.876650 35.169028 Q 1675.791398 35.169028 1667.211162 41.913492 Q 1658.630927 48.657956 1659.189640 58.315710 L 1659.349272 58.794607 L 1662.861182 58.794607 Q 1663.499712 48.578140 1671.640959 44.028620 Q 1679.782206 39.479100 1690.876650 39.479100 Q 1702.849072 39.479100 1709.872893 45.066230 Q 1716.896714 50.653360 1716.896714 57.996446 Z" transform="scale(0.218182,0.218182) translate(55.000004,55.000004)" fill="#ffffff" opacity="1.000000"></path>
    </g>
</svg>